<?xml version="1.0" encoding="UTF-8"?>
<svg xmlns:xhtml="http://www.w3.org/1999/xhtml" xmlns:xlink="http://www.w3.org/1999/xlink" id="mermaid-svg-455" width="100%" xmlns="http://www.w3.org/2000/svg" class="flowchart" style="max-width: 100%;" viewBox="-42.5 -42.5 4830.966796875 935" height="100%"><style>#mermaid-svg-455{font-family:"trebuchet ms",verdana,arial,sans-serif;font-size:16px;fill:#ccc;}@keyframes edge-animation-frame{from{stroke-dashoffset:0;}}@keyframes dash{to{stroke-dashoffset:0;}}#mermaid-svg-455 .edge-animation-slow{stroke-dasharray:9,5!important;stroke-dashoffset:900;animation:dash 50s linear infinite;stroke-linecap:round;}#mermaid-svg-455 .edge-animation-fast{stroke-dasharray:9,5!important;stroke-dashoffset:900;animation:dash 20s linear infinite;stroke-linecap:round;}#mermaid-svg-455 .error-icon{fill:#a44141;}#mermaid-svg-455 .error-text{fill:#ddd;stroke:#ddd;}#mermaid-svg-455 .edge-thickness-normal{stroke-width:1px;}#mermaid-svg-455 .edge-thickness-thick{stroke-width:3.5px;}#mermaid-svg-455 .edge-pattern-solid{stroke-dasharray:0;}#mermaid-svg-455 .edge-thickness-invisible{stroke-width:0;fill:none;}#mermaid-svg-455 .edge-pattern-dashed{stroke-dasharray:3;}#mermaid-svg-455 .edge-pattern-dotted{stroke-dasharray:2;}#mermaid-svg-455 .marker{fill:lightgrey;stroke:lightgrey;}#mermaid-svg-455 .marker.cross{stroke:lightgrey;}#mermaid-svg-455 svg{font-family:"trebuchet ms",verdana,arial,sans-serif;font-size:16px;}#mermaid-svg-455 p{margin:0;}#mermaid-svg-455 .label{font-family:"trebuchet ms",verdana,arial,sans-serif;color:#ccc;}#mermaid-svg-455 .cluster-label text{fill:#F9FFFE;}#mermaid-svg-455 .cluster-label span{color:#F9FFFE;}#mermaid-svg-455 .cluster-label span p{background-color:transparent;}#mermaid-svg-455 .label text,#mermaid-svg-455 span{fill:#ccc;color:#ccc;}#mermaid-svg-455 .node rect,#mermaid-svg-455 .node circle,#mermaid-svg-455 .node ellipse,#mermaid-svg-455 .node polygon,#mermaid-svg-455 .node path{fill:#1f2020;stroke:#ccc;stroke-width:1px;}#mermaid-svg-455 .rough-node .label text,#mermaid-svg-455 .node .label text,#mermaid-svg-455 .image-shape .label,#mermaid-svg-455 .icon-shape .label{text-anchor:middle;}#mermaid-svg-455 .node .katex path{fill:#000;stroke:#000;stroke-width:1px;}#mermaid-svg-455 .rough-node .label,#mermaid-svg-455 .node .label,#mermaid-svg-455 .image-shape .label,#mermaid-svg-455 .icon-shape .label{text-align:center;}#mermaid-svg-455 .node.clickable{cursor:pointer;}#mermaid-svg-455 .root .anchor path{fill:lightgrey!important;stroke-width:0;stroke:lightgrey;}#mermaid-svg-455 .arrowheadPath{fill:lightgrey;}#mermaid-svg-455 .edgePath .path{stroke:lightgrey;stroke-width:2.0px;}#mermaid-svg-455 .flowchart-link{stroke:lightgrey;fill:none;}#mermaid-svg-455 .edgeLabel{background-color:hsl(0, 0%, 34.4117647059%);text-align:center;}#mermaid-svg-455 .edgeLabel p{background-color:hsl(0, 0%, 34.4117647059%);}#mermaid-svg-455 .edgeLabel rect{opacity:0.5;background-color:hsl(0, 0%, 34.4117647059%);fill:hsl(0, 0%, 34.4117647059%);}#mermaid-svg-455 .labelBkg{background-color:rgba(87.75, 87.75, 87.75, 0.5);}#mermaid-svg-455 .cluster rect{fill:hsl(180, 1.5873015873%, 28.3529411765%);stroke:rgba(255, 255, 255, 0.25);stroke-width:1px;}#mermaid-svg-455 .cluster text{fill:#F9FFFE;}#mermaid-svg-455 .cluster span{color:#F9FFFE;}#mermaid-svg-455 div.mermaidTooltip{position:absolute;text-align:center;max-width:200px;padding:2px;font-family:"trebuchet ms",verdana,arial,sans-serif;font-size:12px;background:hsl(20, 1.5873015873%, 12.3529411765%);border:1px solid rgba(255, 255, 255, 0.25);border-radius:2px;pointer-events:none;z-index:100;}#mermaid-svg-455 .flowchartTitleText{text-anchor:middle;font-size:18px;fill:#ccc;}#mermaid-svg-455 rect.text{fill:none;stroke-width:0;}#mermaid-svg-455 .icon-shape,#mermaid-svg-455 .image-shape{background-color:hsl(0, 0%, 34.4117647059%);text-align:center;}#mermaid-svg-455 .icon-shape p,#mermaid-svg-455 .image-shape p{background-color:hsl(0, 0%, 34.4117647059%);padding:2px;}#mermaid-svg-455 .icon-shape rect,#mermaid-svg-455 .image-shape rect{opacity:0.5;background-color:hsl(0, 0%, 34.4117647059%);fill:hsl(0, 0%, 34.4117647059%);}#mermaid-svg-455 .label-icon{display:inline-block;height:1em;overflow:visible;vertical-align:-0.125em;}#mermaid-svg-455 .node .label-icon path{fill:currentColor;stroke:revert;stroke-width:revert;}#mermaid-svg-455 :root{--mermaid-font-family:"trebuchet ms",verdana,arial,sans-serif;}</style><g><marker id="mermaid-svg-455_flowchart-v2-pointEnd" class="marker flowchart-v2" viewBox="0 0 10 10" refX="5" refY="5" markerUnits="userSpaceOnUse" markerWidth="8" markerHeight="8" orient="auto"><path d="M 0 0 L 10 5 L 0 10 z" class="arrowMarkerPath" style="stroke-width: 1px; stroke-dasharray: 1px, 0px;"/></marker><marker id="mermaid-svg-455_flowchart-v2-pointStart" class="marker flowchart-v2" viewBox="0 0 10 10" refX="4.5" refY="5" markerUnits="userSpaceOnUse" markerWidth="8" markerHeight="8" orient="auto"><path d="M 0 5 L 10 10 L 10 0 z" class="arrowMarkerPath" style="stroke-width: 1px; stroke-dasharray: 1px, 0px;"/></marker><marker id="mermaid-svg-455_flowchart-v2-circleEnd" class="marker flowchart-v2" viewBox="0 0 10 10" refX="11" refY="5" markerUnits="userSpaceOnUse" markerWidth="11" markerHeight="11" orient="auto"><circle cx="5" cy="5" r="5" class="arrowMarkerPath" style="stroke-width: 1px; stroke-dasharray: 1px, 0px;"/></marker><marker id="mermaid-svg-455_flowchart-v2-circleStart" class="marker flowchart-v2" viewBox="0 0 10 10" refX="-1" refY="5" markerUnits="userSpaceOnUse" markerWidth="11" markerHeight="11" orient="auto"><circle cx="5" cy="5" r="5" class="arrowMarkerPath" style="stroke-width: 1px; stroke-dasharray: 1px, 0px;"/></marker><marker id="mermaid-svg-455_flowchart-v2-crossEnd" class="marker cross flowchart-v2" viewBox="0 0 11 11" refX="12" refY="5.2" markerUnits="userSpaceOnUse" markerWidth="11" markerHeight="11" orient="auto"><path d="M 1,1 l 9,9 M 10,1 l -9,9" class="arrowMarkerPath" style="stroke-width: 2px; stroke-dasharray: 1px, 0px;"/></marker><marker id="mermaid-svg-455_flowchart-v2-crossStart" class="marker cross flowchart-v2" viewBox="0 0 11 11" refX="-1" refY="5.2" markerUnits="userSpaceOnUse" markerWidth="11" markerHeight="11" orient="auto"><path d="M 1,1 l 9,9 M 10,1 l -9,9" class="arrowMarkerPath" style="stroke-width: 2px; stroke-dasharray: 1px, 0px;"/></marker><g class="root"><g class="clusters"><g class="cluster" id="Output" data-look="classic"><rect style="fill:#E0F2F1 !important;stroke:#00695C !important" x="4482.116668701172" y="20" width="255.85000610351562" height="822"/><g class="cluster-label" transform="translate(4571.700004577637, 20)"><foreignObject width="76.68333435058594" height="24"><div style="display: table-cell; white-space: nowrap; line-height: 1.5; max-width: 200px; text-align: center;" xmlns="http://www.w3.org/1999/xhtml"><span class="nodeLabel" style="color:#000000 !important"><p>📤 Output</p></span></div></foreignObject></g></g><g class="cluster" id="Security" data-look="classic"><rect style="fill:#E6F4EA !important;stroke:#137333 !important" x="4136.900009155273" y="8" width="295.21665954589844" height="172"/><g class="cluster-label" transform="translate(4242.0583419799805, 8)"><foreignObject width="84.89999389648438" height="24"><div style="display: table-cell; white-space: nowrap; line-height: 1.5; max-width: 200px; text-align: center;" xmlns="http://www.w3.org/1999/xhtml"><span class="nodeLabel" style="color:#000000 !important"><p>4️⃣ Security</p></span></div></foreignObject></g></g><g class="cluster" id="Orphan" data-look="classic"><rect style="fill:#F3E8FD !important;stroke:#9334E6 !important" x="2996.7666931152344" y="37" width="1090.133316040039" height="222"/><g class="cluster-label" transform="translate(3441.833351135254, 37)"><foreignObject width="200" height="48"><div style="display: table; white-space: break-spaces; line-height: 1.5; max-width: 200px; text-align: center; width: 200px;" xmlns="http://www.w3.org/1999/xhtml"><span class="nodeLabel" style="color:#000000 !important"><p>3️⃣ Orphan Validation (Stream only)</p></span></div></foreignObject></g></g><g class="cluster" id="Records" data-look="classic"><rect style="fill:#FCE8E6 !important;stroke:#D93025 !important" x="1544.2000274658203" y="84" width="1349.816665649414" height="508"/><g class="cluster-label" transform="translate(2139.8583602905273, 84)"><foreignObject width="158.5" height="24"><div style="display: table-cell; white-space: nowrap; line-height: 1.5; max-width: 200px; text-align: center;" xmlns="http://www.w3.org/1999/xhtml"><span class="nodeLabel" style="color:#000000 !important"><p>2️⃣ Records Validation</p></span></div></foreignObject></g></g><g class="cluster" id="Schema" data-look="classic"><rect style="fill:#FEF7E0 !important;stroke:#E37400 !important" x="312.70001220703125" y="321" width="1181.500015258789" height="521"/><g class="cluster-label" transform="translate(824.5666885375977, 321)"><foreignObject width="157.76666259765625" height="24"><div style="display: table-cell; white-space: nowrap; line-height: 1.5; max-width: 200px; text-align: center;" xmlns="http://www.w3.org/1999/xhtml"><span class="nodeLabel" style="color:#000000 !important"><p>1️⃣ Schema Validation</p></span></div></foreignObject></g></g></g><g class="edgePaths"><path d="M552.5,542.241L559.128,540.034C565.756,537.827,579.011,533.414,591.6,531.207C604.189,529,616.111,529,622.072,529L628.033,529" id="L_B1_B2_0" class="edge-thickness-normal edge-pattern-solid edge-thickness-normal edge-pattern-solid flowchart-link" style="" marker-end="url(#mermaid-svg-455_flowchart-v2-pointEnd)"/><path d="M471.549,617L491.669,646.667C511.788,676.333,552.028,735.667,600.442,765.333C648.856,795,705.444,795,759.572,795C813.7,795,865.367,795,915.604,795C965.842,795,1014.65,795,1063.458,795C1112.267,795,1161.075,795,1209.172,795C1257.269,795,1304.656,795,1352.042,795C1399.428,795,1446.814,795,1474.674,795C1502.533,795,1510.867,795,1519.2,795C1527.533,795,1535.867,795,1564.474,795C1593.081,795,1641.961,795,1690.842,795C1739.722,795,1788.603,795,1838.876,795C1889.15,795,1940.817,795,1992.483,795C2044.15,795,2095.817,795,2140.485,795C2185.153,795,2222.822,795,2260.492,795C2298.161,795,2335.831,795,2376.889,795C2417.947,795,2462.394,795,2511.238,795C2560.081,795,2613.319,795,2661.092,795C2708.864,795,2751.169,795,2789.079,795C2826.989,795,2860.503,795,2885.822,795C2911.142,795,2928.267,795,2945.392,795C2962.517,795,2979.642,795,3011.992,795C3044.342,795,3091.917,795,3143.888,795C3195.858,795,3252.225,795,3305.447,795C3358.669,795,3408.747,795,3458.825,795C3508.903,795,3558.981,795,3605.739,795C3652.497,795,3695.936,795,3734.979,795C3774.022,795,3808.669,795,3846.292,795C3883.914,795,3924.511,795,3965.108,795C4005.706,795,4046.303,795,4070.768,795C4095.233,795,4103.567,795,4111.9,795C4120.233,795,4128.567,795,4157.335,795C4186.103,795,4235.306,795,4284.508,795C4333.711,795,4382.914,795,4411.682,795C4440.45,795,4448.783,795,4457.117,795C4465.45,795,4473.783,795,4494.964,767.069C4516.146,739.139,4550.174,683.277,4567.189,655.347L4584.203,627.416" id="L_B1_F2_0" class="edge-thickness-normal edge-pattern-solid edge-thickness-normal edge-pattern-solid flowchart-link" style="" marker-end="url(#mermaid-svg-455_flowchart-v2-pointEnd)"/><path d="M892.033,492.935L896.2,491.78C900.367,490.624,908.7,488.312,916.367,487.156C924.033,486,931.033,486,934.533,486L938.033,486" id="L_B2_B3_0" class="edge-thickness-normal edge-pattern-solid edge-thickness-normal edge-pattern-solid flowchart-link" style="" marker-end="url(#mermaid-svg-455_flowchart-v2-pointEnd)"/><path d="M1184.883,450.342L1189.05,449.118C1193.217,447.894,1201.55,445.447,1209.217,444.224C1216.883,443,1223.883,443,1227.383,443L1230.883,443" id="L_B3_B4_0" class="edge-thickness-normal edge-pattern-solid edge-thickness-normal edge-pattern-solid flowchart-link" style="" marker-end="url(#mermaid-svg-455_flowchart-v2-pointEnd)"/><path d="M1469.2,399.321L1473.367,397.767C1477.533,396.214,1485.867,393.107,1494.2,391.553C1502.533,390,1510.867,390,1519.2,390C1527.533,390,1535.867,390,1543.533,390C1551.2,390,1558.2,390,1561.7,390L1565.2,390" id="L_B4_C1_0" class="edge-thickness-normal edge-pattern-solid edge-thickness-normal edge-pattern-solid flowchart-link" style="" marker-end="url(#mermaid-svg-455_flowchart-v2-pointEnd)"/><path d="M1812.483,349.354L1816.65,347.961C1820.817,346.569,1829.15,343.785,1836.817,342.392C1844.483,341,1851.483,341,1854.983,341L1858.483,341" id="L_C1_C2_0" class="edge-thickness-normal edge-pattern-solid edge-thickness-normal edge-pattern-solid flowchart-link" style="" marker-end="url(#mermaid-svg-455_flowchart-v2-pointEnd)"/><path d="M2122.483,304.935L2126.65,303.78C2130.817,302.624,2139.15,300.312,2146.817,299.156C2154.483,298,2161.483,298,2164.983,298L2168.483,298" id="L_C2_C3_0" class="edge-thickness-normal edge-pattern-solid edge-thickness-normal edge-pattern-solid flowchart-link" style="" marker-end="url(#mermaid-svg-455_flowchart-v2-pointEnd)"/><path d="M2348.5,264.513L2352.667,262.927C2356.833,261.342,2365.167,258.171,2372.833,256.585C2380.5,255,2387.5,255,2391,255L2394.5,255" id="L_C3_C4_0" class="edge-thickness-normal edge-pattern-solid edge-thickness-normal edge-pattern-solid flowchart-link" style="" marker-end="url(#mermaid-svg-455_flowchart-v2-pointEnd)"/><path d="M2615.183,221.762L2623.746,219.135C2632.308,216.508,2649.433,211.254,2665.892,208.627C2682.35,206,2698.142,206,2706.038,206L2713.933,206" id="L_C4_C5_0" class="edge-thickness-normal edge-pattern-solid edge-thickness-normal edge-pattern-solid flowchart-link" style="" marker-end="url(#mermaid-svg-455_flowchart-v2-pointEnd)"/><path d="M2869.017,166.179L2873.183,163.982C2877.35,161.786,2885.683,157.393,2898.413,155.196C2911.142,153,2928.267,153,2945.392,153C2962.517,153,2979.642,153,2991.704,153C3003.767,153,3010.767,153,3014.267,153L3017.767,153" id="L_C5_D1_0" class="edge-thickness-normal edge-pattern-solid edge-thickness-normal edge-pattern-solid flowchart-link" style="" marker-end="url(#mermaid-svg-455_flowchart-v2-pointEnd)"/><path d="M3257.217,153L3265.779,153C3274.342,153,3291.467,153,3307.925,153C3324.383,153,3340.175,153,3348.071,153L3355.967,153" id="L_D1_D2_0" class="edge-thickness-normal edge-pattern-solid edge-thickness-normal edge-pattern-solid flowchart-link" style="" marker-end="url(#mermaid-svg-455_flowchart-v2-pointEnd)"/><path d="M3557.683,153L3566.246,153C3574.808,153,3591.933,153,3608.392,153C3624.85,153,3640.642,153,3648.538,153L3656.433,153" id="L_D2_D3_0" class="edge-thickness-normal edge-pattern-solid edge-thickness-normal edge-pattern-solid flowchart-link" style="" marker-end="url(#mermaid-svg-455_flowchart-v2-pointEnd)"/><path d="M3818.317,153L3822.483,153C3826.65,153,3834.983,153,3842.65,153C3850.317,153,3857.317,153,3860.817,153L3864.317,153" id="L_D3_D4_0" class="edge-thickness-normal edge-pattern-solid edge-thickness-normal edge-pattern-solid flowchart-link" style="" marker-end="url(#mermaid-svg-455_flowchart-v2-pointEnd)"/><path d="M4020.844,126L4031.853,120.667C4042.862,115.333,4064.881,104.667,4080.057,99.333C4095.233,94,4103.567,94,4111.9,94C4120.233,94,4128.567,94,4136.233,94C4143.9,94,4150.9,94,4154.4,94L4157.9,94" id="L_D4_E1_0" class="edge-thickness-normal edge-pattern-solid edge-thickness-normal edge-pattern-solid flowchart-link" style="" marker-end="url(#mermaid-svg-455_flowchart-v2-pointEnd)"/><path d="M4407.117,94L4411.283,94C4415.45,94,4423.783,94,4432.117,94C4440.45,94,4448.783,94,4457.117,94C4465.45,94,4473.783,94,4481.95,94C4490.117,94,4498.117,94,4502.117,94L4506.117,94" id="L_E1_F1_0" class="edge-thickness-normal edge-pattern-solid edge-thickness-normal edge-pattern-solid flowchart-link" style="" marker-end="url(#mermaid-svg-455_flowchart-v2-pointEnd)"/><path d="M4020.844,180L4031.853,185.333C4042.862,190.667,4064.881,201.333,4080.057,206.667C4095.233,212,4103.567,212,4111.9,212C4120.233,212,4128.567,212,4157.335,212C4186.103,212,4235.306,212,4284.508,212C4333.711,212,4382.914,212,4411.682,212C4440.45,212,4448.783,212,4457.117,212C4465.45,212,4473.783,212,4496.825,267.036C4519.867,322.072,4557.618,432.144,4576.493,487.18L4595.368,542.216" id="L_D4_F2_0" class="edge-thickness-normal edge-pattern-solid edge-thickness-normal edge-pattern-solid flowchart-link" style="" marker-end="url(#mermaid-svg-455_flowchart-v2-pointEnd)"/><path d="M1741.034,441L1757.109,457.333C1773.184,473.667,1805.334,506.333,1847.242,522.667C1889.15,539,1940.817,539,1992.483,539C2044.15,539,2095.817,539,2140.485,539C2185.153,539,2222.822,539,2260.492,539C2298.161,539,2335.831,539,2376.889,539C2417.947,539,2462.394,539,2511.238,539C2560.081,539,2613.319,539,2661.092,539C2708.864,539,2751.169,539,2789.079,539C2826.989,539,2860.503,539,2885.822,539C2911.142,539,2928.267,539,2945.392,539C2962.517,539,2979.642,539,3011.992,539C3044.342,539,3091.917,539,3143.888,539C3195.858,539,3252.225,539,3305.447,539C3358.669,539,3408.747,539,3458.825,539C3508.903,539,3558.981,539,3605.739,539C3652.497,539,3695.936,539,3734.979,539C3774.022,539,3808.669,539,3846.292,539C3883.914,539,3924.511,539,3965.108,539C4005.706,539,4046.303,539,4070.768,539C4095.233,539,4103.567,539,4111.9,539C4120.233,539,4128.567,539,4157.335,539C4186.103,539,4235.306,539,4284.508,539C4333.711,539,4382.914,539,4411.682,539C4440.45,539,4448.783,539,4457.117,539C4465.45,539,4473.783,539,4481.489,540.273C4489.195,541.545,4496.274,544.091,4499.813,545.363L4503.353,546.636" id="L_C1_F2_0" class="edge-thickness-normal edge-pattern-solid edge-thickness-normal edge-pattern-solid flowchart-link" style="" marker-end="url(#mermaid-svg-455_flowchart-v2-pointEnd)"/><path d="M2065.904,404L2079.501,415.667C2093.097,427.333,2120.29,450.667,2152.722,462.333C2185.153,474,2222.822,474,2260.492,474C2298.161,474,2335.831,474,2376.889,474C2417.947,474,2462.394,474,2511.238,474C2560.081,474,2613.319,474,2661.092,474C2708.864,474,2751.169,474,2789.079,474C2826.989,474,2860.503,474,2885.822,474C2911.142,474,2928.267,474,2945.392,474C2962.517,474,2979.642,474,3011.992,474C3044.342,474,3091.917,474,3143.888,474C3195.858,474,3252.225,474,3305.447,474C3358.669,474,3408.747,474,3458.825,474C3508.903,474,3558.981,474,3605.739,474C3652.497,474,3695.936,474,3734.979,474C3774.022,474,3808.669,474,3846.292,474C3883.914,474,3924.511,474,3965.108,474C4005.706,474,4046.303,474,4070.768,474C4095.233,474,4103.567,474,4111.9,474C4120.233,474,4128.567,474,4157.335,474C4186.103,474,4235.306,474,4284.508,474C4333.711,474,4382.914,474,4411.682,474C4440.45,474,4448.783,474,4457.117,474C4465.45,474,4473.783,474,4491.276,485.563C4508.769,497.126,4535.421,520.252,4548.748,531.815L4562.074,543.379" id="L_C2_F2_0" class="edge-thickness-normal edge-pattern-solid edge-thickness-normal edge-pattern-solid flowchart-link" style="" marker-end="url(#mermaid-svg-455_flowchart-v2-pointEnd)"/><path d="M2309.752,349L2320.376,360C2331.001,371,2352.251,393,2385.099,404C2417.947,415,2462.394,415,2511.238,415C2560.081,415,2613.319,415,2661.092,415C2708.864,415,2751.169,415,2789.079,415C2826.989,415,2860.503,415,2885.822,415C2911.142,415,2928.267,415,2945.392,415C2962.517,415,2979.642,415,3011.992,415C3044.342,415,3091.917,415,3143.888,415C3195.858,415,3252.225,415,3305.447,415C3358.669,415,3408.747,415,3458.825,415C3508.903,415,3558.981,415,3605.739,415C3652.497,415,3695.936,415,3734.979,415C3774.022,415,3808.669,415,3846.292,415C3883.914,415,3924.511,415,3965.108,415C4005.706,415,4046.303,415,4070.768,415C4095.233,415,4103.567,415,4111.9,415C4120.233,415,4128.567,415,4157.335,415C4186.103,415,4235.306,415,4284.508,415C4333.711,415,4382.914,415,4411.682,415C4440.45,415,4448.783,415,4457.117,415C4465.45,415,4473.783,415,4493.979,436.301C4514.174,457.601,4546.232,500.203,4562.26,521.503L4578.289,542.804" id="L_C3_F2_0" class="edge-thickness-normal edge-pattern-solid edge-thickness-normal edge-pattern-solid flowchart-link" style="" marker-end="url(#mermaid-svg-455_flowchart-v2-pointEnd)"/><path d="M2587.491,306L2600.669,314.333C2613.847,322.667,2640.202,339.333,2674.533,347.667C2708.864,356,2751.169,356,2789.079,356C2826.989,356,2860.503,356,2885.822,356C2911.142,356,2928.267,356,2945.392,356C2962.517,356,2979.642,356,3011.992,356C3044.342,356,3091.917,356,3143.888,356C3195.858,356,3252.225,356,3305.447,356C3358.669,356,3408.747,356,3458.825,356C3508.903,356,3558.981,356,3605.739,356C3652.497,356,3695.936,356,3734.979,356C3774.022,356,3808.669,356,3846.292,356C3883.914,356,3924.511,356,3965.108,356C4005.706,356,4046.303,356,4070.768,356C4095.233,356,4103.567,356,4111.9,356C4120.233,356,4128.567,356,4157.335,356C4186.103,356,4235.306,356,4284.508,356C4333.711,356,4382.914,356,4411.682,356C4440.45,356,4448.783,356,4457.117,356C4465.45,356,4473.783,356,4495.315,387.085C4516.846,418.169,4551.575,480.339,4568.94,511.423L4586.305,542.508" id="L_C4_F2_0" class="edge-thickness-normal edge-pattern-solid edge-thickness-normal edge-pattern-solid flowchart-link" style="" marker-end="url(#mermaid-svg-455_flowchart-v2-pointEnd)"/><path d="M2867.994,269L2872.331,272.667C2876.668,276.333,2885.343,283.667,2898.242,287.333C2911.142,291,2928.267,291,2945.392,291C2962.517,291,2979.642,291,3011.992,291C3044.342,291,3091.917,291,3143.888,291C3195.858,291,3252.225,291,3305.447,291C3358.669,291,3408.747,291,3458.825,291C3508.903,291,3558.981,291,3605.739,291C3652.497,291,3695.936,291,3734.979,291C3774.022,291,3808.669,291,3846.292,291C3883.914,291,3924.511,291,3965.108,291C4005.706,291,4046.303,291,4070.768,291C4095.233,291,4103.567,291,4111.9,291C4120.233,291,4128.567,291,4157.335,291C4186.103,291,4235.306,291,4284.508,291C4333.711,291,4382.914,291,4411.682,291C4440.45,291,4448.783,291,4457.117,291C4465.45,291,4473.783,291,4496.177,332.889C4518.57,374.777,4555.023,458.555,4573.25,500.443L4591.476,542.332" id="L_C5_F2_0" class="edge-thickness-normal edge-pattern-solid edge-thickness-normal edge-pattern-solid flowchart-link" style="" marker-end="url(#mermaid-svg-455_flowchart-v2-pointEnd)"/><path d="M810.615,592L828.352,615C846.088,638,881.561,684,923.701,707C965.842,730,1014.65,730,1063.458,730C1112.267,730,1161.075,730,1209.172,730C1257.269,730,1304.656,730,1352.042,730C1399.428,730,1446.814,730,1474.674,730C1502.533,730,1510.867,730,1519.2,730C1527.533,730,1535.867,730,1564.474,730C1593.081,730,1641.961,730,1690.842,730C1739.722,730,1788.603,730,1838.876,730C1889.15,730,1940.817,730,1992.483,730C2044.15,730,2095.817,730,2140.485,730C2185.153,730,2222.822,730,2260.492,730C2298.161,730,2335.831,730,2376.889,730C2417.947,730,2462.394,730,2511.238,730C2560.081,730,2613.319,730,2661.092,730C2708.864,730,2751.169,730,2789.079,730C2826.989,730,2860.503,730,2885.822,730C2911.142,730,2928.267,730,2945.392,730C2962.517,730,2979.642,730,3011.992,730C3044.342,730,3091.917,730,3143.888,730C3195.858,730,3252.225,730,3305.447,730C3358.669,730,3408.747,730,3458.825,730C3508.903,730,3558.981,730,3605.739,730C3652.497,730,3695.936,730,3734.979,730C3774.022,730,3808.669,730,3846.292,730C3883.914,730,3924.511,730,3965.108,730C4005.706,730,4046.303,730,4070.768,730C4095.233,730,4103.567,730,4111.9,730C4120.233,730,4128.567,730,4157.335,730C4186.103,730,4235.306,730,4284.508,730C4333.711,730,4382.914,730,4411.682,730C4440.45,730,4448.783,730,4457.117,730C4465.45,730,4473.783,730,4493.095,712.833C4512.407,695.667,4542.698,661.333,4557.843,644.166L4572.988,627" id="L_B2_F2_0" class="edge-thickness-normal edge-pattern-solid edge-thickness-normal edge-pattern-solid flowchart-link" style="" marker-end="url(#mermaid-svg-455_flowchart-v2-pointEnd)"/><path d="M1103.824,537L1121.501,559.333C1139.177,581.667,1174.53,626.333,1215.9,648.667C1257.269,671,1304.656,671,1352.042,671C1399.428,671,1446.814,671,1474.674,671C1502.533,671,1510.867,671,1519.2,671C1527.533,671,1535.867,671,1564.474,671C1593.081,671,1641.961,671,1690.842,671C1739.722,671,1788.603,671,1838.876,671C1889.15,671,1940.817,671,1992.483,671C2044.15,671,2095.817,671,2140.485,671C2185.153,671,2222.822,671,2260.492,671C2298.161,671,2335.831,671,2376.889,671C2417.947,671,2462.394,671,2511.238,671C2560.081,671,2613.319,671,2661.092,671C2708.864,671,2751.169,671,2789.079,671C2826.989,671,2860.503,671,2885.822,671C2911.142,671,2928.267,671,2945.392,671C2962.517,671,2979.642,671,3011.992,671C3044.342,671,3091.917,671,3143.888,671C3195.858,671,3252.225,671,3305.447,671C3358.669,671,3408.747,671,3458.825,671C3508.903,671,3558.981,671,3605.739,671C3652.497,671,3695.936,671,3734.979,671C3774.022,671,3808.669,671,3846.292,671C3883.914,671,3924.511,671,3965.108,671C4005.706,671,4046.303,671,4070.768,671C4095.233,671,4103.567,671,4111.9,671C4120.233,671,4128.567,671,4157.335,671C4186.103,671,4235.306,671,4284.508,671C4333.711,671,4382.914,671,4411.682,671C4440.45,671,4448.783,671,4457.117,671C4465.45,671,4473.783,671,4489.049,663.539C4504.314,656.077,4526.512,641.154,4537.611,633.693L4548.71,626.232" id="L_B3_F2_0" class="edge-thickness-normal edge-pattern-solid edge-thickness-normal edge-pattern-solid flowchart-link" style="" marker-end="url(#mermaid-svg-455_flowchart-v2-pointEnd)"/><path d="M1394.942,494L1411.485,513.667C1428.028,533.333,1461.114,572.667,1481.824,592.333C1502.533,612,1510.867,612,1519.2,612C1527.533,612,1535.867,612,1564.474,612C1593.081,612,1641.961,612,1690.842,612C1739.722,612,1788.603,612,1838.876,612C1889.15,612,1940.817,612,1992.483,612C2044.15,612,2095.817,612,2140.485,612C2185.153,612,2222.822,612,2260.492,612C2298.161,612,2335.831,612,2376.889,612C2417.947,612,2462.394,612,2511.238,612C2560.081,612,2613.319,612,2661.092,612C2708.864,612,2751.169,612,2789.079,612C2826.989,612,2860.503,612,2885.822,612C2911.142,612,2928.267,612,2945.392,612C2962.517,612,2979.642,612,3011.992,612C3044.342,612,3091.917,612,3143.888,612C3195.858,612,3252.225,612,3305.447,612C3358.669,612,3408.747,612,3458.825,612C3508.903,612,3558.981,612,3605.739,612C3652.497,612,3695.936,612,3734.979,612C3774.022,612,3808.669,612,3846.292,612C3883.914,612,3924.511,612,3965.108,612C4005.706,612,4046.303,612,4070.768,612C4095.233,612,4103.567,612,4111.9,612C4120.233,612,4128.567,612,4157.335,612C4186.103,612,4235.306,612,4284.508,612C4333.711,612,4382.914,612,4411.682,612C4440.45,612,4448.783,612,4457.117,612C4465.45,612,4473.783,612,4481.464,611.258C4489.145,610.517,4496.174,609.033,4499.689,608.291L4503.203,607.55" id="L_B4_F2_0" class="edge-thickness-normal edge-pattern-solid edge-thickness-normal edge-pattern-solid flowchart-link" style="" marker-end="url(#mermaid-svg-455_flowchart-v2-pointEnd)"/><path d="M262.7,578L266.867,578C271.033,578,279.367,578,287.7,578C296.033,578,304.367,578,312.033,578C319.7,578,326.7,578,330.2,578L333.7,578" id="L_Input_B1_0" class="edge-thickness-normal edge-pattern-solid edge-thickness-normal edge-pattern-solid flowchart-link" style="" marker-end="url(#mermaid-svg-455_flowchart-v2-pointEnd)"/></g><g class="edgeLabels"><g class="edgeLabel" transform="translate(592.2666854858398, 529)"><g class="label" transform="translate(-14.766670227050781, -12)"><foreignObject width="29.533340454101562" height="24"><div style="display: table-cell; white-space: nowrap; line-height: 1.5; max-width: 200px; text-align: center;" xmlns="http://www.w3.org/1999/xhtml" class="labelBkg"><span class="edgeLabel"><p>Pass</p></span></div></foreignObject></g></g><g class="edgeLabel" transform="translate(2506.841697692871, 795)"><g class="label" transform="translate(-83.78333282470703, -12)"><foreignObject width="167.56666564941406" height="24"><div style="display: table-cell; white-space: nowrap; line-height: 1.5; max-width: 200px; text-align: center;" xmlns="http://www.w3.org/1999/xhtml" class="labelBkg"><span class="edgeLabel"><p>Fail: missing/extra cols</p></span></div></foreignObject></g></g><g class="edgeLabel"><g class="label" transform="translate(0, 0)"><foreignObject width="0" height="0"><div style="display: table-cell; white-space: nowrap; line-height: 1.5; max-width: 200px; text-align: center;" xmlns="http://www.w3.org/1999/xhtml" class="labelBkg"><span class="edgeLabel"></span></div></foreignObject></g></g><g class="edgeLabel"><g class="label" transform="translate(0, 0)"><foreignObject width="0" height="0"><div style="display: table-cell; white-space: nowrap; line-height: 1.5; max-width: 200px; text-align: center;" xmlns="http://www.w3.org/1999/xhtml" class="labelBkg"><span class="edgeLabel"></span></div></foreignObject></g></g><g class="edgeLabel"><g class="label" transform="translate(0, 0)"><foreignObject width="0" height="0"><div style="display: table-cell; white-space: nowrap; line-height: 1.5; max-width: 200px; text-align: center;" xmlns="http://www.w3.org/1999/xhtml" class="labelBkg"><span class="edgeLabel"></span></div></foreignObject></g></g><g class="edgeLabel"><g class="label" transform="translate(0, 0)"><foreignObject width="0" height="0"><div style="display: table-cell; white-space: nowrap; line-height: 1.5; max-width: 200px; text-align: center;" xmlns="http://www.w3.org/1999/xhtml" class="labelBkg"><span class="edgeLabel"></span></div></foreignObject></g></g><g class="edgeLabel"><g class="label" transform="translate(0, 0)"><foreignObject width="0" height="0"><div style="display: table-cell; white-space: nowrap; line-height: 1.5; max-width: 200px; text-align: center;" xmlns="http://www.w3.org/1999/xhtml" class="labelBkg"><span class="edgeLabel"></span></div></foreignObject></g></g><g class="edgeLabel"><g class="label" transform="translate(0, 0)"><foreignObject width="0" height="0"><div style="display: table-cell; white-space: nowrap; line-height: 1.5; max-width: 200px; text-align: center;" xmlns="http://www.w3.org/1999/xhtml" class="labelBkg"><span class="edgeLabel"></span></div></foreignObject></g></g><g class="edgeLabel"><g class="label" transform="translate(0, 0)"><foreignObject width="0" height="0"><div style="display: table-cell; white-space: nowrap; line-height: 1.5; max-width: 200px; text-align: center;" xmlns="http://www.w3.org/1999/xhtml" class="labelBkg"><span class="edgeLabel"></span></div></foreignObject></g></g><g class="edgeLabel"><g class="label" transform="translate(0, 0)"><foreignObject width="0" height="0"><div style="display: table-cell; white-space: nowrap; line-height: 1.5; max-width: 200px; text-align: center;" xmlns="http://www.w3.org/1999/xhtml" class="labelBkg"><span class="edgeLabel"></span></div></foreignObject></g></g><g class="edgeLabel"><g class="label" transform="translate(0, 0)"><foreignObject width="0" height="0"><div style="display: table-cell; white-space: nowrap; line-height: 1.5; max-width: 200px; text-align: center;" xmlns="http://www.w3.org/1999/xhtml" class="labelBkg"><span class="edgeLabel"></span></div></foreignObject></g></g><g class="edgeLabel"><g class="label" transform="translate(0, 0)"><foreignObject width="0" height="0"><div style="display: table-cell; white-space: nowrap; line-height: 1.5; max-width: 200px; text-align: center;" xmlns="http://www.w3.org/1999/xhtml" class="labelBkg"><span class="edgeLabel"></span></div></foreignObject></g></g><g class="edgeLabel"><g class="label" transform="translate(0, 0)"><foreignObject width="0" height="0"><div style="display: table-cell; white-space: nowrap; line-height: 1.5; max-width: 200px; text-align: center;" xmlns="http://www.w3.org/1999/xhtml" class="labelBkg"><span class="edgeLabel"></span></div></foreignObject></g></g><g class="edgeLabel"><g class="label" transform="translate(0, 0)"><foreignObject width="0" height="0"><div style="display: table-cell; white-space: nowrap; line-height: 1.5; max-width: 200px; text-align: center;" xmlns="http://www.w3.org/1999/xhtml" class="labelBkg"><span class="edgeLabel"></span></div></foreignObject></g></g><g class="edgeLabel"><g class="label" transform="translate(0, 0)"><foreignObject width="0" height="0"><div style="display: table-cell; white-space: nowrap; line-height: 1.5; max-width: 200px; text-align: center;" xmlns="http://www.w3.org/1999/xhtml" class="labelBkg"><span class="edgeLabel"></span></div></foreignObject></g></g><g class="edgeLabel" transform="translate(4284.508338928223, 212)"><g class="label" transform="translate(-29.150001525878906, -12)"><foreignObject width="58.30000305175781" height="24"><div style="display: table-cell; white-space: nowrap; line-height: 1.5; max-width: 200px; text-align: center;" xmlns="http://www.w3.org/1999/xhtml" class="labelBkg"><span class="edgeLabel"><p>Orphans</p></span></div></foreignObject></g></g><g class="edgeLabel" transform="translate(3139.4916915893555, 539)"><g class="label" transform="translate(-26.375, -12)"><foreignObject width="52.75" height="24"><div style="display: table-cell; white-space: nowrap; line-height: 1.5; max-width: 200px; text-align: center;" xmlns="http://www.w3.org/1999/xhtml" class="labelBkg"><span class="edgeLabel"><p>Rejects</p></span></div></foreignObject></g></g><g class="edgeLabel" transform="translate(3308.5916900634766, 474)"><g class="label" transform="translate(-26.375, -12)"><foreignObject width="52.75" height="24"><div style="display: table-cell; white-space: nowrap; line-height: 1.5; max-width: 200px; text-align: center;" xmlns="http://www.w3.org/1999/xhtml" class="labelBkg"><span class="edgeLabel"><p>Rejects</p></span></div></foreignObject></g></g><g class="edgeLabel" transform="translate(3458.825019836426, 415)"><g class="label" transform="translate(-26.375, -12)"><foreignObject width="52.75" height="24"><div style="display: table-cell; white-space: nowrap; line-height: 1.5; max-width: 200px; text-align: center;" xmlns="http://www.w3.org/1999/xhtml" class="labelBkg"><span class="edgeLabel"><p>Rejects</p></span></div></foreignObject></g></g><g class="edgeLabel" transform="translate(3609.058349609375, 356)"><g class="label" transform="translate(-26.375, -12)"><foreignObject width="52.75" height="24"><div style="display: table-cell; white-space: nowrap; line-height: 1.5; max-width: 200px; text-align: center;" xmlns="http://www.w3.org/1999/xhtml" class="labelBkg"><span class="edgeLabel"><p>Rejects</p></span></div></foreignObject></g></g><g class="edgeLabel" transform="translate(3739.375015258789, 291)"><g class="label" transform="translate(-26.375, -12)"><foreignObject width="52.75" height="24"><div style="display: table-cell; white-space: nowrap; line-height: 1.5; max-width: 200px; text-align: center;" xmlns="http://www.w3.org/1999/xhtml" class="labelBkg"><span class="edgeLabel"><p>Rejects</p></span></div></foreignObject></g></g><g class="edgeLabel" transform="translate(2666.558364868164, 730)"><g class="label" transform="translate(-26.375, -12)"><foreignObject width="52.75" height="24"><div style="display: table-cell; white-space: nowrap; line-height: 1.5; max-width: 200px; text-align: center;" xmlns="http://www.w3.org/1999/xhtml" class="labelBkg"><span class="edgeLabel"><p>Rejects</p></span></div></foreignObject></g></g><g class="edgeLabel" transform="translate(2793.475028991699, 671)"><g class="label" transform="translate(-26.375, -12)"><foreignObject width="52.75" height="24"><div style="display: table-cell; white-space: nowrap; line-height: 1.5; max-width: 200px; text-align: center;" xmlns="http://www.w3.org/1999/xhtml" class="labelBkg"><span class="edgeLabel"><p>Rejects</p></span></div></foreignObject></g></g><g class="edgeLabel" transform="translate(2945.3916931152344, 612)"><g class="label" transform="translate(-26.375, -12)"><foreignObject width="52.75" height="24"><div style="display: table-cell; white-space: nowrap; line-height: 1.5; max-width: 200px; text-align: center;" xmlns="http://www.w3.org/1999/xhtml" class="labelBkg"><span class="edgeLabel"><p>Rejects</p></span></div></foreignObject></g></g><g class="edgeLabel"><g class="label" transform="translate(0, 0)"><foreignObject width="0" height="0"><div style="display: table-cell; white-space: nowrap; line-height: 1.5; max-width: 200px; text-align: center;" xmlns="http://www.w3.org/1999/xhtml" class="labelBkg"><span class="edgeLabel"></span></div></foreignObject></g></g></g><g class="nodes"><g class="root" transform="translate(0, 493.5)"><g class="clusters"><g class="cluster" id="Input" data-look="classic"><rect style="fill:#E8F0FE !important;stroke:#1967D2 !important" x="8" y="8" width="254.6999969482422" height="153"/><g class="cluster-label" transform="translate(103.3499984741211, 8)"><foreignObject width="64" height="24"><div style="display: table-cell; white-space: nowrap; line-height: 1.5; max-width: 200px; text-align: center;" xmlns="http://www.w3.org/1999/xhtml"><span class="nodeLabel" style="color:#000000 !important"><p>📥 Input</p></span></div></foreignObject></g></g></g><g class="edgePaths"/><g class="edgeLabels"/><g class="nodes"><g class="node default" id="flowchart-A-0" transform="translate(135.3499984741211, 84.5)"><rect class="basic label-container" style="" x="-92.3499984741211" y="-39" width="184.6999969482422" height="78"/><g class="label" style="" transform="translate(-62.349998474121094, -24)"><rect/><foreignObject width="124.69999694824219" height="48"><div style="display: table-cell; white-space: nowrap; line-height: 1.5; max-width: 200px; text-align: center;" xmlns="http://www.w3.org/1999/xhtml"><span class="nodeLabel"><p>Raw DataFrame<br />all columns as str</p></span></div></foreignObject></g></g></g></g><g class="node default" id="flowchart-B1-1" transform="translate(445.10001373291016, 578)"><rect class="basic label-container" style="" x="-107.4000015258789" y="-39" width="214.8000030517578" height="78"/><g class="label" style="" transform="translate(-77.4000015258789, -24)"><rect/><foreignObject width="154.8000030517578" height="48"><div style="display: table-cell; white-space: nowrap; line-height: 1.5; max-width: 200px; text-align: center;" xmlns="http://www.w3.org/1999/xhtml"><span class="nodeLabel"><p>Column Check<br />exact match required</p></span></div></foreignObject></g></g><g class="node default" id="flowchart-B2-2" transform="translate(762.0333557128906, 529)"><rect class="basic label-container" style="" x="-130" y="-63" width="260" height="126"/><g class="label" style="" transform="translate(-100, -48)"><rect/><foreignObject width="200" height="96"><div style="display: table; white-space: break-spaces; line-height: 1.5; max-width: 200px; text-align: center; width: 200px;" xmlns="http://www.w3.org/1999/xhtml"><span class="nodeLabel"><p>Datatype Check<br />str→int/float/datetime/bool<br />errors='coerce'</p></span></div></foreignObject></g></g><g class="node default" id="flowchart-B3-3" transform="translate(1063.4583587646484, 486)"><rect class="basic label-container" style="" x="-121.42500305175781" y="-51" width="242.85000610351562" height="102"/><g class="label" style="" transform="translate(-91.42500305175781, -36)"><rect/><foreignObject width="182.85000610351562" height="72"><div style="display: table-cell; white-space: nowrap; line-height: 1.5; max-width: 200px; text-align: center;" xmlns="http://www.w3.org/1999/xhtml"><span class="nodeLabel"><p>Null Check<br />NOT NULL columns<br />treats None/nan/'' as null</p></span></div></foreignObject></g></g><g class="node default" id="flowchart-B4-4" transform="translate(1352.0416946411133, 443)"><rect class="basic label-container" style="" x="-117.15833282470703" y="-51" width="234.31666564941406" height="102"/><g class="label" style="" transform="translate(-87.15833282470703, -36)"><rect/><foreignObject width="174.31666564941406" height="72"><div style="display: table-cell; white-space: nowrap; line-height: 1.5; max-width: 200px; text-align: center;" xmlns="http://www.w3.org/1999/xhtml"><span class="nodeLabel"><p>Categorical Check<br />whitelist enforcement<br />nullable cols can be null</p></span></div></foreignObject></g></g><g class="node default" id="flowchart-C1-5" transform="translate(1690.841697692871, 390)"><rect class="basic label-container" style="" x="-121.64167022705078" y="-51" width="243.28334045410156" height="102"/><g class="label" style="" transform="translate(-91.64167022705078, -36)"><rect/><foreignObject width="183.28334045410156" height="72"><div style="display: table-cell; white-space: nowrap; line-height: 1.5; max-width: 200px; text-align: center;" xmlns="http://www.w3.org/1999/xhtml"><span class="nodeLabel"><p>Null Removal<br />drop rows with any null<br />stream: ignore old_status</p></span></div></foreignObject></g></g><g class="node default" id="flowchart-C2-6" transform="translate(1992.4833679199219, 341)"><rect class="basic label-container" style="" x="-130" y="-63" width="260" height="126"/><g class="label" style="" transform="translate(-100, -48)"><rect/><foreignObject width="200" height="96"><div style="display: table; white-space: break-spaces; line-height: 1.5; max-width: 200px; text-align: center; width: 200px;" xmlns="http://www.w3.org/1999/xhtml"><span class="nodeLabel"><p>Empty Check<br />reject '', nan, null, none, n/a<br />only for NOT NULL columns</p></span></div></foreignObject></g></g><g class="node default" id="flowchart-C3-7" transform="translate(2260.49169921875, 298)"><rect class="basic label-container" style="" x="-88.00833129882812" y="-51" width="176.01666259765625" height="102"/><g class="label" style="" transform="translate(-58.008331298828125, -36)"><rect/><foreignObject width="116.01666259765625" height="72"><div style="display: table-cell; white-space: nowrap; line-height: 1.5; max-width: 200px; text-align: center;" xmlns="http://www.w3.org/1999/xhtml"><span class="nodeLabel"><p>Duplicate Check<br />keep first by PK<br />quarantine rest</p></span></div></foreignObject></g></g><g class="node default" id="flowchart-C4-8" transform="translate(2506.841697692871, 255)"><rect class="basic label-container" style="" x="-108.34166717529297" y="-51" width="216.68333435058594" height="102"/><g class="label" style="" transform="translate(-78.34166717529297, -36)"><rect/><foreignObject width="156.68333435058594" height="72"><div style="display: table-cell; white-space: nowrap; line-height: 1.5; max-width: 200px; text-align: center;" xmlns="http://www.w3.org/1999/xhtml"><span class="nodeLabel"><p>Format Check<br />dates, emails, phones<br />national_id length=15</p></span></div></foreignObject></g></g><g class="node default" id="flowchart-C5-9" transform="translate(2793.475028991699, 206)"><rect class="basic label-container" style="" x="-75.54166412353516" y="-63" width="151.0833282470703" height="126"/><g class="label" style="" transform="translate(-45.541664123535156, -48)"><rect/><foreignObject width="91.08332824707031" height="96"><div style="display: table-cell; white-space: nowrap; line-height: 1.5; max-width: 200px; text-align: center;" xmlns="http://www.w3.org/1999/xhtml"><span class="nodeLabel"><p>Range Check<br />numeric ≥ 0<br />ratings ≤ 5<br />rates ≤ 1</p></span></div></foreignObject></g></g><g class="node default" id="flowchart-D1-10" transform="translate(3139.4916915893555, 153)"><rect class="basic label-container" style="" x="-117.7249984741211" y="-27" width="235.4499969482422" height="54"/><g class="label" style="" transform="translate(-87.7249984741211, -12)"><rect/><foreignObject width="175.4499969482422" height="24"><div style="display: table-cell; white-space: nowrap; line-height: 1.5; max-width: 200px; text-align: center;" xmlns="http://www.w3.org/1999/xhtml"><span class="nodeLabel"><p>Get FK rules from config</p></span></div></foreignObject></g></g><g class="node default" id="flowchart-D2-11" transform="translate(3458.825019836426, 153)"><rect class="basic label-container" style="" x="-98.85832977294922" y="-39" width="197.71665954589844" height="78"/><g class="label" style="" transform="translate(-68.85832977294922, -24)"><rect/><foreignObject width="137.71665954589844" height="48"><div style="display: table-cell; white-space: nowrap; line-height: 1.5; max-width: 200px; text-align: center;" xmlns="http://www.w3.org/1999/xhtml"><span class="nodeLabel"><p>Query Postgres<br />for valid parent IDs</p></span></div></foreignObject></g></g><g class="node default" id="flowchart-D3-12" transform="translate(3739.375015258789, 153)"><rect class="basic label-container" style="" x="-78.94166564941406" y="-39" width="157.88333129882812" height="78"/><g class="label" style="" transform="translate(-48.94166564941406, -24)"><rect/><foreignObject width="97.88333129882812" height="48"><div style="display: table-cell; white-space: nowrap; line-height: 1.5; max-width: 200px; text-align: center;" xmlns="http://www.w3.org/1999/xhtml"><span class="nodeLabel"><p>Normalize IDs<br />370.0 → 370</p></span></div></foreignObject></g></g><g class="node default" id="flowchart-D4-13" transform="translate(3965.1083450317383, 153)"><rect class="basic label-container" style="" x="-96.79166412353516" y="-27" width="193.5833282470703" height="54"/><g class="label" style="" transform="translate(-66.79166412353516, -12)"><rect/><foreignObject width="133.5833282470703" height="24"><div style="display: table-cell; white-space: nowrap; line-height: 1.5; max-width: 200px; text-align: center;" xmlns="http://www.w3.org/1999/xhtml"><span class="nodeLabel"><p>Split clean/orphan</p></span></div></foreignObject></g></g><g class="node default" id="flowchart-E1-14" transform="translate(4284.508338928223, 94)"><rect class="basic label-container" style="" x="-122.60832977294922" y="-51" width="245.21665954589844" height="102"/><g class="label" style="" transform="translate(-92.60832977294922, -36)"><rect/><foreignObject width="185.21665954589844" height="72"><div style="display: table-cell; white-space: nowrap; line-height: 1.5; max-width: 200px; text-align: center;" xmlns="http://www.w3.org/1999/xhtml"><span class="nodeLabel"><p>PII Masking<br />SHA-256 hash<br />email, phone, national_id</p></span></div></foreignObject></g></g><g class="node default" id="flowchart-F1-15" transform="translate(4610.04167175293, 94)"><rect class="basic label-container" style="" x="-99.92500305175781" y="-39" width="199.85000610351562" height="78"/><g class="label" style="" transform="translate(-69.92500305175781, -24)"><rect/><foreignObject width="139.85000610351562" height="48"><div style="display: table-cell; white-space: nowrap; line-height: 1.5; max-width: 200px; text-align: center;" xmlns="http://www.w3.org/1999/xhtml"><span class="nodeLabel"><p>Clean DataFrame<br />ready for DWH load</p></span></div></foreignObject></g></g><g class="node default" id="flowchart-F2-16" transform="translate(4610.04167175293, 585)"><rect class="basic label-container" style="" x="-102.92500305175781" y="-39" width="205.85000610351562" height="78"/><g class="label" style="" transform="translate(-72.92500305175781, -24)"><rect/><foreignObject width="145.85000610351562" height="48"><div style="display: table-cell; white-space: nowrap; line-height: 1.5; max-width: 200px; text-align: center;" xmlns="http://www.w3.org/1999/xhtml"><span class="nodeLabel"><p>Quarantine Records<br />JSONB + CSV backup</p></span></div></foreignObject></g></g></g></g></g></svg>